<?xml version="1.0" encoding="utf-8"?>
<!-- Generator: Adobe Illustrator 19.0.0, SVG Export Plug-In . SVG Version: 6.00 Build 0)  -->
<!DOCTYPE svg PUBLIC "-//W3C//DTD SVG 1.1//EN" "http://www.w3.org/Graphics/SVG/1.1/DTD/svg11.dtd">
<svg version="1.1" id="Capa_1" xmlns="http://www.w3.org/2000/svg" xmlns:xlink="http://www.w3.org/1999/xlink" x="0px" y="0px"
	 viewBox="0 0 15.825 23.866" enable-background="new 0 0 15.825 23.866" xml:space="preserve">
<rect id="XMLID_323_" x="0" y="23.157" fill="#FFFFFF" width="13.541" height="0.709"/>
<path id="XMLID_297_" fill="#FFFFFF" d="M2.104,1.214v21.25h2.711v-3.546h5.244v3.546h2.711V1.214H2.104z M4.815,18.089H2.958v-2
	h1.857V18.089z M4.815,15.314H2.958v-2h1.857V15.314z M4.815,12.539H2.958v-2h1.857V12.539z M4.815,9.764H2.958v-2h1.857V9.764z
	 M4.815,6.989H2.958v-2h1.857V6.989z M4.815,4.214H2.958v-2h1.857V4.214z M7.182,18.089H5.326v-2h1.857V18.089z M7.182,15.314H5.326
	v-2h1.857V15.314z M7.182,12.539H5.326v-2h1.857V12.539z M7.182,9.764H5.326v-2h1.857V9.764z M7.182,6.989H5.326v-2h1.857V6.989z
	 M7.182,4.214H5.326v-2h1.857V4.214z M9.55,18.089H7.692v-2H9.55V18.089z M9.55,15.314H7.692v-2H9.55V15.314z M9.55,12.539H7.692v-2
	H9.55V12.539z M9.55,9.764H7.692v-2H9.55V9.764z M9.55,6.989H7.692v-2H9.55V6.989z M9.55,4.214H7.692v-2H9.55V4.214z M11.917,18.089
	H10.06v-2h1.857V18.089z M11.917,15.314H10.06v-2h1.857V15.314z M11.917,12.539H10.06v-2h1.857V12.539z M11.917,9.764H10.06v-2
	h1.857V9.764z M11.917,6.989H10.06v-2h1.857V6.989z M11.917,4.214H10.06v-2h1.857V4.214z"/>
<polyline id="XMLID_296_" fill="#72AEBC" points="12.771,1.177 13.948,0.019 13.948,21.287 12.771,22.464 "/>
<polyline id="XMLID_295_" fill="#0E7290" points="13.541,23.866 15.825,21.582 15.825,20.873 13.541,23.157 "/>
<line id="XMLID_294_" fill="none" x1="13.541" y1="23.157" x2="13.541" y2="23.866"/>
<polygon id="XMLID_293_" fill="#0E7290" points="4.815,22.464 5.176,22.104 5.176,18.918 4.815,18.918 "/>
<rect id="XMLID_292_" x="5.176" y="18.918" fill="#29788A" width="4.884" height="3.185"/>
<path id="XMLID_291_" fill="#4B4C4C" d="M15.825,20.873"/>
<polygon id="XMLID_290_" fill="#3E899B" points="15.825,20.873 13.948,20.873 13.948,21.287 12.771,22.464 10.06,22.464 
	10.06,22.104 5.176,22.104 4.815,22.464 2.104,22.464 2.104,21.027 0,23.157 13.541,23.157 "/>
<polygon id="XMLID_289_" fill="#3E899B" points="2.104,1.214 3.3,0.019 13.948,0.019 12.771,1.214 "/>
<polygon id="XMLID_288_" fill="#72AEBC" points="2.958,4.214 3.146,4.027 3.146,2.214 2.958,2.214 "/>
<polyline id="XMLID_287_" fill="#3E899B" points="4.815,4.214 2.958,4.214 3.146,4.027 4.815,4.027 "/>
<polygon id="XMLID_286_" fill="#72AEBC" points="5.326,4.214 5.513,4.027 5.513,2.214 5.326,2.214 "/>
<polyline id="XMLID_285_" fill="#3E899B" points="7.182,4.214 5.326,4.214 5.513,4.027 7.182,4.027 "/>
<polygon id="XMLID_284_" fill="#72AEBC" points="7.693,4.214 7.88,4.027 7.88,2.214 7.693,2.214 "/>
<polyline id="XMLID_283_" fill="#3E899B" points="9.55,4.214 7.693,4.214 7.88,4.027 9.55,4.027 "/>
<polygon id="XMLID_282_" fill="#72AEBC" points="10.06,4.214 10.247,4.027 10.247,2.214 10.06,2.214 "/>
<polyline id="XMLID_281_" fill="#3E899B" points="11.917,4.214 10.06,4.214 10.247,4.027 11.917,4.027 "/>
<polygon id="XMLID_280_" fill="#72AEBC" points="2.958,6.989 3.146,6.802 3.146,4.989 2.958,4.989 "/>
<polyline id="XMLID_279_" fill="#3E899B" points="4.815,6.989 2.958,6.989 3.146,6.802 4.815,6.802 "/>
<polygon id="XMLID_278_" fill="#72AEBC" points="5.326,6.989 5.513,6.802 5.513,4.989 5.326,4.989 "/>
<polyline id="XMLID_277_" fill="#3E899B" points="7.182,6.989 5.326,6.989 5.513,6.802 7.182,6.802 "/>
<polygon id="XMLID_276_" fill="#72AEBC" points="7.693,6.989 7.88,6.802 7.88,4.989 7.693,4.989 "/>
<polyline id="XMLID_275_" fill="#3E899B" points="9.55,6.989 7.693,6.989 7.88,6.802 9.55,6.802 "/>
<polygon id="XMLID_274_" fill="#72AEBC" points="10.06,6.989 10.247,6.802 10.247,4.989 10.06,4.989 "/>
<polyline id="XMLID_273_" fill="#3E899B" points="11.917,6.989 10.06,6.989 10.247,6.802 11.917,6.802 "/>
<polygon id="XMLID_272_" fill="#72AEBC" points="2.958,9.764 3.146,9.577 3.146,7.764 2.958,7.764 "/>
<polyline id="XMLID_271_" fill="#3E899B" points="4.815,9.764 2.958,9.764 3.146,9.577 4.815,9.577 "/>
<polygon id="XMLID_270_" fill="#72AEBC" points="5.326,9.764 5.513,9.577 5.513,7.764 5.326,7.764 "/>
<polyline id="XMLID_269_" fill="#3E899B" points="7.182,9.764 5.326,9.764 5.513,9.577 7.182,9.577 "/>
<polygon id="XMLID_268_" fill="#72AEBC" points="7.693,9.764 7.88,9.577 7.88,7.764 7.693,7.764 "/>
<polyline id="XMLID_267_" fill="#3E899B" points="9.55,9.764 7.693,9.764 7.88,9.577 9.55,9.577 "/>
<polygon id="XMLID_266_" fill="#72AEBC" points="10.06,9.764 10.247,9.577 10.247,7.764 10.06,7.764 "/>
<polyline id="XMLID_265_" fill="#3E899B" points="11.917,9.764 10.06,9.764 10.247,9.577 11.917,9.577 "/>
<polygon id="XMLID_264_" fill="#72AEBC" points="2.958,12.539 3.146,12.352 3.146,10.539 2.958,10.539 "/>
<polyline id="XMLID_263_" fill="#3E899B" points="4.815,12.539 2.958,12.539 3.146,12.352 4.815,12.352 "/>
<polygon id="XMLID_262_" fill="#72AEBC" points="5.326,12.539 5.513,12.352 5.513,10.539 5.326,10.539 "/>
<polyline id="XMLID_261_" fill="#3E899B" points="7.182,12.539 5.326,12.539 5.513,12.352 7.182,12.352 "/>
<polygon id="XMLID_260_" fill="#72AEBC" points="7.693,12.539 7.88,12.352 7.88,10.539 7.693,10.539 "/>
<polyline id="XMLID_259_" fill="#3E899B" points="9.55,12.539 7.693,12.539 7.88,12.352 9.55,12.352 "/>
<polygon id="XMLID_258_" fill="#72AEBC" points="10.06,12.539 10.247,12.352 10.247,10.539 10.06,10.539 "/>
<polyline id="XMLID_257_" fill="#3E899B" points="11.917,12.539 10.06,12.539 10.247,12.352 11.917,12.352 "/>
<polygon id="XMLID_256_" fill="#72AEBC" points="2.958,15.314 3.146,15.127 3.146,13.314 2.958,13.314 "/>
<polyline id="XMLID_255_" fill="#3E899B" points="4.815,15.314 2.958,15.314 3.146,15.127 4.815,15.127 "/>
<polygon id="XMLID_254_" fill="#72AEBC" points="5.326,15.314 5.513,15.127 5.513,13.314 5.326,13.314 "/>
<polyline id="XMLID_253_" fill="#3E899B" points="7.182,15.314 5.326,15.314 5.513,15.127 7.182,15.127 "/>
<polygon id="XMLID_252_" fill="#72AEBC" points="7.693,15.314 7.88,15.127 7.88,13.314 7.693,13.314 "/>
<polyline id="XMLID_251_" fill="#3E899B" points="9.55,15.314 7.693,15.314 7.88,15.127 9.55,15.127 "/>
<polygon id="XMLID_250_" fill="#72AEBC" points="10.06,15.314 10.247,15.127 10.247,13.314 10.06,13.314 "/>
<polyline id="XMLID_249_" fill="#3E899B" points="11.917,15.314 10.06,15.314 10.247,15.127 11.917,15.127 "/>
<polygon id="XMLID_248_" fill="#72AEBC" points="2.958,18.089 3.146,17.902 3.146,16.089 2.958,16.089 "/>
<polyline id="XMLID_247_" fill="#3E899B" points="4.815,18.089 2.958,18.089 3.146,17.902 4.815,17.902 "/>
<polygon id="XMLID_246_" fill="#72AEBC" points="5.326,18.089 5.513,17.902 5.513,16.089 5.326,16.089 "/>
<polyline id="XMLID_245_" fill="#3E899B" points="7.182,18.089 5.326,18.089 5.513,17.902 7.182,17.902 "/>
<polygon id="XMLID_244_" fill="#72AEBC" points="7.693,18.089 7.88,17.902 7.88,16.089 7.693,16.089 "/>
<polyline id="XMLID_243_" fill="#3E899B" points="9.55,18.089 7.693,18.089 7.88,17.902 9.55,17.902 "/>
<polygon id="XMLID_242_" fill="#72AEBC" points="10.06,18.089 10.247,17.902 10.247,16.089 10.06,16.089 "/>
<polyline id="XMLID_241_" fill="#3E899B" points="11.917,18.089 10.06,18.089 10.247,17.902 11.917,17.902 "/>
<g id="XMLID_2_">
</g>
<g id="XMLID_3_">
</g>
<g id="XMLID_4_">
</g>
<g id="XMLID_5_">
</g>
<g id="XMLID_6_">
</g>
<g id="XMLID_7_">
</g>
</svg>
