<?xml version="1.0" encoding="utf-8"?>
<!-- Generator: Adobe Illustrator 19.0.0, SVG Export Plug-In . SVG Version: 6.00 Build 0)  -->
<!DOCTYPE svg PUBLIC "-//W3C//DTD SVG 1.1//EN" "http://www.w3.org/Graphics/SVG/1.1/DTD/svg11.dtd">
<svg version="1.1" id="Capa_1" xmlns="http://www.w3.org/2000/svg" xmlns:xlink="http://www.w3.org/1999/xlink" x="0px" y="0px"
	 viewBox="0 0 764.919 585.256" enable-background="new 0 0 764.919 585.256" xml:space="preserve">
<g id="XMLID_2_">
	<path id="XMLID_13_" fill="#C33626" d="M764.919,585.256H0V0h764.919V585.256z"/>
	<path id="XMLID_66_" fill="#FFFFFF" d="M254.973,292.628h509.946V0H0L254.973,292.628z"/>
	<path id="XMLID_12_" fill="#203D8D" d="M254.973,292.987H0V0.359h254.973V292.987z"/>
	<g id="XMLID_3_">
		<g id="t">
			<path id="o" fill="#FFFFFF" d="M127.486,76.201l-19.698,60.623l30.312,9.849L127.486,76.201z"/>
			<g id="XMLID_11_" transform="scale(-1,1)">
				<path id="o_1_" fill="#FFFFFF" d="M127.486,76.201l19.698,60.623l-30.312,9.849L127.486,76.201z"/>
			</g>
		</g>
		<g id="f">
			<g id="t_1_">
				<path id="o_2_" fill="#FFFFFF" d="M188.11,120.246h-63.743v31.872L188.11,120.246z"/>
				<g id="XMLID_10_" transform="rotate(72)">
					<path id="o_3_" fill="#FFFFFF" d="M188.11,120.246l-51.569,37.467l-18.734-25.785L188.11,120.246z"/>
				</g>
			</g>
		</g>
		<g id="XMLID_4_">
			<g id="t_2_">
				<path id="o_4_" fill="#FFFFFF" d="M66.863,120.246l51.569,37.467l18.734-25.785L66.863,120.246z"/>
				<g id="XMLID_9_" transform="rotate(-72)">
					<path id="o_5_" fill="#FFFFFF" d="M66.863,120.246h63.743v31.872L66.863,120.246z"/>
				</g>
			</g>
			<g id="XMLID_5_">
				<g id="XMLID_6_">
					<g id="t_3_">
						<path id="o_6_" fill="#FFFFFF" d="M164.954,191.513l-19.698-60.623l-30.312,9.849L164.954,191.513z"/>
						<g id="XMLID_8_" transform="scale(-1,1)">
							<path id="o_7_" fill="#FFFFFF" d="M164.954,191.513l-51.569-37.467l18.734-25.785L164.954,191.513z"/>
						</g>
					</g>
					<g id="f_1_">
						<g id="t_4_">
							<path id="o_8_" fill="#FFFFFF" d="M90.019,191.513l51.569-37.467l-18.734-25.785L90.019,191.513z"/>
							<g id="XMLID_7_" transform="rotate(144)">
								<path id="o_9_" fill="#FFFFFF" d="M90.019,191.513l19.698-60.623l30.312,9.849L90.019,191.513z"/>
							</g>
						</g>
					</g>
				</g>
			</g>
		</g>
	</g>
</g>
<g id="XMLID_105_">
</g>
<g id="XMLID_106_">
</g>
<g id="XMLID_107_">
</g>
<g id="XMLID_108_">
</g>
<g id="XMLID_109_">
</g>
<g id="XMLID_110_">
</g>
</svg>
