<?xml version="1.0" encoding="utf-8"?>
<!-- Generator: Adobe Illustrator 19.0.0, SVG Export Plug-In . SVG Version: 6.00 Build 0)  -->
<!DOCTYPE svg PUBLIC "-//W3C//DTD SVG 1.1//EN" "http://www.w3.org/Graphics/SVG/1.1/DTD/svg11.dtd">
<svg version="1.1" id="Capa_1" xmlns="http://www.w3.org/2000/svg" xmlns:xlink="http://www.w3.org/1999/xlink" x="0px" y="0px"
	 viewBox="0 0 1410 278.07" enable-background="new 0 0 1410 278.07" xml:space="preserve">
<g id="XMLID_136_">
	<path id="XMLID_302_" fill="#0E7290" d="M218.132,145.043c0,42.974-12.231,75.888-36.694,98.743s-59.789,34.283-105.975,34.283
		H1.54V17.016h81.958c42.614,0,75.709,11.25,99.278,33.748C206.347,73.263,218.132,104.688,218.132,145.043z M160.636,146.472
		c0-56.067-24.762-84.102-74.281-84.102H56.893v169.988h23.749C133.969,232.358,160.636,203.73,160.636,146.472z"/>
	<path id="XMLID_305_" fill="#0E7290" d="M367.166,278.069l-3.794-26.104h-1.215c-8.297,10.623-16.821,18.136-25.572,22.537
		c-8.752,4.401-19.099,6.602-31.035,6.602c-16.189,0-28.786-4.147-37.79-12.444c-9.006-8.295-13.507-19.779-13.507-34.451
		c0-16.087,6.701-28.581,20.109-37.485c13.404-8.902,32.805-13.606,58.201-14.114l31.415-0.91v-10.928
		c0-15.682-3.187-27.519-9.561-35.513c-6.374-7.991-16.645-11.989-30.809-11.989c-15.278,0-31.111,4.25-47.502,12.748l-5.615-13.052
		c18.109-8.498,36.018-12.748,53.725-12.748c18.109,0,31.643,4.705,40.597,14.114s13.432,24.08,13.432,44.012v109.726H367.166z
		 M306.46,267.446c17.604,0,31.491-5.032,41.659-15.101c10.169-10.066,15.253-24.055,15.253-41.964v-16.238l-28.836,1.214
		c-23.17,1.114-39.686,4.731-49.551,10.852c-9.864,6.122-14.797,15.657-14.797,28.607c0,10.32,3.161,18.34,9.485,24.055
		C285.995,264.588,294.926,267.446,306.46,267.446z"/>
	<path id="XMLID_308_" fill="#0E7290" d="M496.621,109.914c6.981,0,14.468,0.709,22.461,2.125l-2.883,14.418
		c-6.882-1.72-14.015-2.58-21.399-2.58c-14.064,0-25.599,5.971-34.603,17.908c-9.006,11.939-13.507,27.014-13.507,45.226v91.059
		h-15.024V113.102h12.748l1.518,29.745h1.062c6.777-12.141,14.012-20.663,21.702-25.571
		C476.384,112.369,485.694,109.914,496.621,109.914z"/>
	<path id="XMLID_310_" fill="#0E7290" d="M684.507,278.069l-36.121-110.333c-2.328-7.486-5.311-18.463-8.953-32.933h-0.912
		l-3.186,11.23l-6.83,22.006l-36.727,110.029h-14.873l-47.199-164.968h16.087l26.407,95.611
		c6.17,23.675,10.219,41.078,12.141,52.207h0.912c5.967-23.675,10.318-39.406,13.051-47.199L632.3,113.102h13.658l32.326,100.316
		c7.285,23.777,11.734,39.511,13.355,47.198h0.91c0.809-6.575,4.855-24.181,12.141-52.813l25.193-94.701h15.176l-44.77,164.968
		H684.507z"/>
	<path id="XMLID_312_" fill="#0E7290" d="M775.261,67.269c0-9.713,3.188-14.569,9.562-14.569c3.135,0,5.589,1.267,7.36,3.794
		c1.77,2.53,2.656,6.123,2.656,10.775c0,4.553-0.887,8.146-2.656,10.775c-1.771,2.632-4.226,3.945-7.36,3.945
		C778.448,81.989,775.261,77.083,775.261,67.269z M792.41,278.069h-15.024V113.102h15.024V278.069z"/>
	<path id="XMLID_315_" fill="#0E7290" d="M962.691,278.069V171.075c0-16.592-3.491-28.657-10.473-36.195
		c-6.98-7.536-17.809-11.307-32.478-11.307c-19.729,0-34.173,4.984-43.328,14.949c-9.158,9.966-13.735,26.129-13.735,48.488v91.059
		h-15.024V113.102h12.748l2.884,22.612h0.91c10.724-17.198,29.796-25.8,57.216-25.8c37.434,0,56.152,20.085,56.152,60.251v107.904
		H962.691z"/>
	<path id="XMLID_317_" fill="#0E7290" d="M1186.565,278.069h-150.348V17.016h150.348V62.37h-94.994v57.317h88.387v45.354h-88.387
		v67.317h94.994V278.069z"/>
	<path id="XMLID_319_" fill="#0E7290" d="M1299.95,281.641c-23.452,0-41.872-9.106-55.264-27.319
		c-13.393-18.213-20.088-43.449-20.088-75.709c0-32.735,6.812-58.238,20.444-76.513c13.63-18.271,32.409-27.409,56.336-27.409
		c25.115,0,44.282,9.763,57.496,29.284h1.785c-2.739-14.879-4.106-28.151-4.106-39.819V0.231h54.639v277.838h-41.782l-10.535-25.891
		h-2.321C1344.172,271.819,1325.306,281.641,1299.95,281.641z M1319.056,238.251c13.928,0,24.134-4.046,30.623-12.143
		c6.487-8.094,10.027-21.843,10.625-41.247v-5.893c0-21.427-3.304-36.782-9.91-46.067c-6.607-9.285-17.352-13.928-32.23-13.928
		c-12.142,0-21.577,5.15-28.302,15.445c-6.727,10.298-10.088,25.266-10.088,44.907s3.393,34.373,10.178,44.193
		S1306.437,238.251,1319.056,238.251z"/>
</g>
<g id="XMLID_301_">
</g>
<g id="XMLID_322_">
</g>
<g id="XMLID_323_">
</g>
<g id="XMLID_324_">
</g>
<g id="XMLID_325_">
</g>
<g id="XMLID_326_">
</g>
</svg>
