<?xml version="1.0" encoding="utf-8"?>
<!-- Generator: Adobe Illustrator 19.0.0, SVG Export Plug-In . SVG Version: 6.00 Build 0)  -->
<!DOCTYPE svg PUBLIC "-//W3C//DTD SVG 1.1//EN" "http://www.w3.org/Graphics/SVG/1.1/DTD/svg11.dtd">
<svg version="1.1" id="Capa_1" xmlns="http://www.w3.org/2000/svg" xmlns:xlink="http://www.w3.org/1999/xlink" x="0px" y="0px"
	 viewBox="0 0 123.255 43.295" enable-background="new 0 0 123.255 43.295" xml:space="preserve">
<g id="XMLID_301_">
	<g id="XMLID_315_">
		<path id="XMLID_332_" fill="#136C88" d="M16.499,9.952c-2.284,0-4.266-1.548-4.821-3.765c-0.668-2.661,0.954-5.368,3.616-6.038
			C15.692,0.051,16.099,0,16.507,0c2.281,0,4.265,1.548,4.825,3.763C22,6.425,20.377,9.133,17.716,9.801
			C17.319,9.903,16.908,9.952,16.499,9.952L16.499,9.952z M16.507,2.654c-0.19,0-0.381,0.024-0.569,0.071
			c-1.241,0.311-2,1.575-1.687,2.817c0.259,1.035,1.184,1.756,2.248,1.756c0.19,0,0.382-0.023,0.569-0.071
			c1.244-0.312,2.002-1.575,1.691-2.816C18.499,3.377,17.571,2.654,16.507,2.654L16.507,2.654z"/>
		<path id="XMLID_331_" fill="#136C88" d="M46.261,6.693c-0.428,0.799-1.144,1.434-2.056,1.738c1.457,2.511,2.242,5.371,2.242,8.324
			c0,9.144-7.443,16.585-16.588,16.585c-9.148,0-16.589-7.441-16.589-16.585c0-2.913,0.778-5.776,2.216-8.277
			c-0.876-0.255-1.641-0.833-2.117-1.633c-1.786,2.975-2.753,6.411-2.753,9.911c0,10.609,8.633,19.241,19.243,19.241
			s19.242-8.632,19.242-19.241C49.101,13.169,48.107,9.699,46.261,6.693z"/>
		<path id="XMLID_328_" fill="#136C88" d="M43.04,9.952c-2.28,0-4.262-1.548-4.822-3.762c-0.668-2.663,0.954-5.369,3.614-6.04
			C42.23,0.051,42.639,0,43.045,0c2.285,0,4.27,1.549,4.828,3.763c0.667,2.663-0.957,5.369-3.615,6.038
			C43.86,9.903,43.449,9.952,43.04,9.952L43.04,9.952z M43.045,2.654c-0.19,0-0.381,0.024-0.567,0.071
			c-1.24,0.311-1.997,1.575-1.687,2.817c0.262,1.035,1.185,1.756,2.248,1.756c0.191,0,0.382-0.023,0.569-0.071
			c1.244-0.312,2.002-1.575,1.691-2.817C45.039,3.377,44.112,2.654,43.045,2.654L43.045,2.654z"/>
		<g id="XMLID_323_">
			<path id="XMLID_327_" fill="#136C88" d="M33.102,6.297c0.126,0.243,0.227,0.501,0.296,0.778c0.185,0.735,0.131,1.474-0.112,2.137
				c2.865,1.308,4.865,4.194,4.865,7.544c0,4.572-3.719,8.29-8.292,8.29c-4.574,0-8.295-3.718-8.295-8.29
				c0-3.35,2-6.235,4.865-7.544c-0.043-0.118-0.08-0.237-0.11-0.36c-0.227-0.895-0.096-1.795,0.294-2.556
				c-4.455,1.387-7.703,5.553-7.703,10.46c0,6.035,4.911,10.945,10.949,10.945c6.035,0,10.946-4.91,10.946-10.945
				C40.805,11.848,37.56,7.683,33.102,6.297z"/>
			<path id="XMLID_324_" fill="#136C88" d="M29.853,12.939c-2.282,0-4.264-1.546-4.823-3.763c-0.323-1.291-0.125-2.63,0.558-3.77
				c0.683-1.142,1.769-1.947,3.06-2.27c0.397-0.099,0.806-0.151,1.212-0.151c2.282,0,4.267,1.549,4.827,3.767
				c0.667,2.662-0.957,5.369-3.618,6.038C30.673,12.889,30.261,12.939,29.853,12.939L29.853,12.939z M29.86,5.64
				c-0.19,0-0.381,0.024-0.567,0.069c-0.602,0.151-1.11,0.528-1.428,1.06c-0.319,0.532-0.41,1.158-0.26,1.76
				c0.262,1.033,1.187,1.757,2.249,1.757c0.19,0,0.381-0.023,0.568-0.071c1.244-0.313,2.002-1.577,1.692-2.818
				C31.852,6.362,30.925,5.64,29.86,5.64L29.86,5.64z"/>
		</g>
		<path id="XMLID_320_" fill="#136C88" d="M4.977,22.063c-2.285,0-4.268-1.548-4.825-3.766c-0.325-1.287-0.128-2.624,0.555-3.767
			c0.683-1.141,1.768-1.949,3.059-2.272c0.397-0.1,0.805-0.151,1.214-0.151c2.285,0,4.268,1.549,4.827,3.766
			c0.667,2.663-0.956,5.373-3.618,6.042C5.793,22.013,5.384,22.063,4.977,22.063L4.977,22.063z M4.98,14.76
			c-0.19,0-0.381,0.024-0.567,0.071c-0.602,0.151-1.11,0.527-1.428,1.061c-0.318,0.533-0.412,1.157-0.259,1.756
			c0.259,1.038,1.184,1.761,2.25,1.761c0.19,0,0.38-0.025,0.567-0.071c1.243-0.313,1.999-1.577,1.686-2.82
			C6.971,15.483,6.047,14.76,4.98,14.76L4.98,14.76z"/>
		<path id="XMLID_317_" fill="#136C88" d="M54.739,22.063c-2.284,0-4.267-1.548-4.822-3.766c-0.324-1.29-0.127-2.627,0.556-3.767
			c0.682-1.143,1.768-1.949,3.055-2.272c0.401-0.1,0.807-0.151,1.213-0.151c2.283,0,4.268,1.549,4.827,3.765
			c0.665,2.664-0.957,5.375-3.616,6.043C55.554,22.013,55.147,22.063,54.739,22.063L54.739,22.063z M54.742,14.76
			c-0.19,0-0.38,0.024-0.567,0.071c-0.6,0.151-1.106,0.527-1.425,1.06c-0.318,0.532-0.41,1.158-0.26,1.759
			c0.26,1.037,1.184,1.76,2.249,1.76c0.19,0,0.382-0.025,0.569-0.071c1.239-0.312,1.997-1.579,1.687-2.821
			C56.734,15.483,55.808,14.76,54.742,14.76L54.742,14.76z"/>
		<path id="XMLID_316_" fill="#136C88" d="M55.629,20.626c-0.727,0.183-1.457,0.132-2.114-0.101
			c-1.668,11.363-11.48,20.117-23.3,20.117c-11.931,0-21.811-8.918-23.343-20.435c-0.304,0.186-0.642,0.329-1.005,0.42
			c-0.548,0.136-1.094,0.139-1.613,0.033c1.749,12.767,12.72,22.636,25.96,22.636c13.32,0,24.345-9.99,25.989-22.87
			C56.021,20.506,55.83,20.575,55.629,20.626z"/>
	</g>
	<g id="XMLID_302_">
		<path id="XMLID_313_" fill="#136C88" d="M73.303,9.226l-2.088-0.402c-0.415-0.08-0.83-0.12-1.245-0.12
			c-1.525,0-2.681,0.562-3.471,1.686c-0.696,0.977-1.043,2.255-1.043,3.833v2.368h6.239v1.585h-6.239v17.819h-1.647V14.042
			c0-1.98,0.502-3.606,1.506-4.876c1.083-1.392,2.595-2.087,4.535-2.087c0.549,0,1.097,0.06,1.646,0.181l1.807,0.401V9.226z"/>
		<path id="XMLID_310_" fill="#136C88" d="M89.804,26.302c0,2.931-0.9,5.338-2.699,7.225c-1.799,1.887-4.157,2.829-7.073,2.829
			c-2.904,0-5.265-0.946-7.084-2.839c-1.82-1.893-2.728-4.298-2.728-7.216c0-2.916,0.909-5.324,2.728-7.223
			c1.819-1.9,4.18-2.85,7.084-2.85c2.916,0,5.284,0.956,7.103,2.87C88.915,20.972,89.804,23.373,89.804,26.302z M88.018,26.262
			c0-2.475-0.707-4.502-2.122-6.08c-1.454-1.619-3.41-2.428-5.865-2.428c-2.456,0-4.424,0.81-5.905,2.428
			c-1.416,1.565-2.122,3.592-2.122,6.08c0,2.489,0.706,4.516,2.122,6.081c1.467,1.618,3.436,2.429,5.905,2.429
			c2.428,0,4.377-0.817,5.844-2.449C87.304,30.731,88.018,28.711,88.018,26.262z"/>
		<path id="XMLID_308_" fill="#136C88" d="M102.245,18.436l-0.117-0.021c0.133,0-0.622-0.092-2.268-0.278
			c-1.861-0.013-3.432,0.804-4.718,2.451c-1.217,1.566-1.825,3.81-1.825,6.728v8.677h-1.647V16.59h1.647v3.793
			c1.564-2.582,3.825-3.873,6.782-3.873c0.227,0.027,0.943,0.127,2.147,0.301V18.436z"/>
		<path id="XMLID_305_" fill="#136C88" d="M106.538,11.132c0,0.816-0.415,1.224-1.243,1.224c-0.791,0-1.185-0.408-1.185-1.224
			c0-0.79,0.394-1.184,1.185-1.184C106.123,9.948,106.538,10.342,106.538,11.132z M106.157,35.995h-1.685V16.59h1.685V35.995z"/>
		<path id="XMLID_303_" fill="#136C88" d="M123.255,31.018c0,3.318-2.523,4.977-7.566,4.977h-1.967
			c-2.421,0-4.195-0.709-5.317-2.127l1.505-0.902c0.923,0.963,2.194,1.444,3.812,1.444h3.191c3.104,0,4.656-1.087,4.656-3.262
			c0-1.864-1.478-3.207-4.434-4.025l-3.754-1.037c-3.224-0.897-4.835-2.549-4.835-4.958c0-3.024,2.039-4.536,6.119-4.536h1.887
			h1.104c2.449,0,4.213,0.678,5.297,2.033l-1.504,0.897c-0.883-0.896-2.208-1.344-3.973-1.344h-3.432
			c-2.541,0-3.812,1.014-3.812,3.042c0,1.535,1.311,2.669,3.934,3.402l3.912,1.102C121.528,26.697,123.255,28.463,123.255,31.018z"
			/>
	</g>
</g>
<g id="XMLID_373_">
</g>
<g id="XMLID_374_">
</g>
<g id="XMLID_375_">
</g>
<g id="XMLID_376_">
</g>
<g id="XMLID_377_">
</g>
<g id="XMLID_378_">
</g>
</svg>
