<?xml version="1.0" encoding="utf-8"?>
<!-- Generator: Adobe Illustrator 19.0.0, SVG Export Plug-In . SVG Version: 6.00 Build 0)  -->
<!DOCTYPE svg PUBLIC "-//W3C//DTD SVG 1.1//EN" "http://www.w3.org/Graphics/SVG/1.1/DTD/svg11.dtd">
<svg version="1.1" id="Capa_1" xmlns="http://www.w3.org/2000/svg" xmlns:xlink="http://www.w3.org/1999/xlink" x="0px" y="0px"
	 viewBox="0 0 764.919 584.247" enable-background="new 0 0 764.919 584.247" xml:space="preserve">
<g id="XMLID_1_">
	<g id="XMLID_23_">
		<path id="XMLID_24_" fill="none" stroke="#0E7290" stroke-width="2" stroke-miterlimit="10" d="M317.743,583.247L177.558,126.45
			h-3.584c5.04,92.93,7.567,154.92,7.567,185.984v270.813H71.224V1h168.063l137.796,445.247h2.389L525.631,1h168.063v582.247
			H578.599V307.655c0-13.005,0.199-28.008,0.597-45.002c0.398-16.988,2.19-62.127,5.376-135.406h-3.584l-150.141,456H317.743z"/>
	</g>
	<g id="XMLID_20_">
		<path id="XMLID_21_" fill="#0E7290" d="M333.354,513.023l-106.37-346.609h-2.72c3.825,70.514,5.741,117.551,5.741,141.121v205.488
			h-83.706V71.224h127.523L378.38,409.07h1.813L491.096,71.224h127.523v441.799h-87.332V303.909c0-9.868,0.151-21.252,0.453-34.147
			c0.302-12.89,1.662-47.141,4.079-102.744h-2.72L419.175,513.023H333.354z"/>
	</g>
	<g id="XMLID_17_">
		<path id="XMLID_18_" fill="none" stroke="#0E7290" stroke-width="2" stroke-miterlimit="10" d="M329.148,531.944L213.666,155.646
			h-2.953c4.152,76.554,6.233,127.62,6.233,153.209v223.09h-90.876V52.303h138.447L378.03,419.087h1.968L500.401,52.303h138.447
			v479.642h-94.813V304.918c0-10.713,0.164-23.072,0.492-37.072c0.328-13.994,1.804-51.179,4.429-111.544h-2.953L422.32,531.944
			H329.148z"/>
	</g>
	<g id="XMLID_14_">
		<path id="XMLID_15_" fill="none" stroke="#0E7290" stroke-width="2" stroke-miterlimit="10" d="M324.741,551.766l-125.026-407.4
			h-3.197c4.495,82.881,6.748,138.168,6.748,165.872v241.528H104.88V32.481h149.889l122.895,397.1h2.131l130.354-397.1h149.889
			v519.285H557.389v-245.79c0-11.599,0.177-24.979,0.533-40.136c0.355-15.151,1.954-55.409,4.795-120.764h-3.197l-133.906,406.69
			H324.741z"/>
	</g>
	
		<rect id="XMLID_13_" x="693.695" y="1" fill="none" stroke="#0E7290" stroke-width="2" stroke-miterlimit="10" width="70.224" height="70.224"/>
	
		<rect id="XMLID_12_" x="693.695" y="501.861" fill="none" stroke="#0E7290" stroke-width="2" stroke-miterlimit="10" width="70.224" height="81.386"/>
	
		<rect id="XMLID_11_" x="693.695" y="71.224" fill="none" stroke="#0E7290" stroke-width="2" stroke-miterlimit="10" width="70.224" height="107.659"/>
	
		<rect id="XMLID_10_" x="693.695" y="178.883" fill="none" stroke="#0E7290" stroke-width="2" stroke-miterlimit="10" width="70.224" height="107.659"/>
	
		<rect id="XMLID_9_" x="693.695" y="286.542" fill="none" stroke="#0E7290" stroke-width="2" stroke-miterlimit="10" width="70.224" height="107.659"/>
	
		<rect id="XMLID_8_" x="693.695" y="394.202" fill="none" stroke="#0E7290" stroke-width="2" stroke-miterlimit="10" width="70.224" height="107.659"/>
	
		<rect id="XMLID_7_" x="1" y="1" fill="none" stroke="#0E7290" stroke-width="2" stroke-miterlimit="10" width="70.224" height="70.224"/>
	
		<rect id="XMLID_6_" x="1" y="501.861" fill="none" stroke="#0E7290" stroke-width="2" stroke-miterlimit="10" width="70.224" height="81.386"/>
	
		<rect id="XMLID_5_" x="1" y="71.224" fill="none" stroke="#0E7290" stroke-width="2" stroke-miterlimit="10" width="70.224" height="107.659"/>
	
		<rect id="XMLID_4_" x="1" y="178.883" fill="none" stroke="#0E7290" stroke-width="2" stroke-miterlimit="10" width="70.224" height="107.659"/>
	
		<rect id="XMLID_3_" x="1" y="286.542" fill="none" stroke="#0E7290" stroke-width="2" stroke-miterlimit="10" width="70.224" height="107.659"/>
	
		<rect id="XMLID_2_" x="1" y="394.202" fill="none" stroke="#0E7290" stroke-width="2" stroke-miterlimit="10" width="70.224" height="107.659"/>
</g>
<g id="XMLID_65_">
</g>
<g id="XMLID_66_">
</g>
<g id="XMLID_67_">
</g>
<g id="XMLID_68_">
</g>
<g id="XMLID_69_">
</g>
<g id="XMLID_70_">
</g>
</svg>
