<?xml version="1.0" encoding="utf-8"?>
<!-- Generator: Adobe Illustrator 19.0.0, SVG Export Plug-In . SVG Version: 6.00 Build 0)  -->
<!DOCTYPE svg PUBLIC "-//W3C//DTD SVG 1.1//EN" "http://www.w3.org/Graphics/SVG/1.1/DTD/svg11.dtd">
<svg version="1.1" id="Capa_1" xmlns="http://www.w3.org/2000/svg" xmlns:xlink="http://www.w3.org/1999/xlink" x="0px" y="0px"
	 viewBox="0 0 764.919 585.256" enable-background="new 0 0 764.919 585.256" xml:space="preserve">
<g id="XMLID_2046_">
	<polygon id="XMLID_2059_" fill="#95C3C5" points="268.476,254.22 164.602,193.515 164.602,69.056 268.476,129.762 	"/>
	<polygon id="XMLID_2058_" fill="#0E7290" points="276.218,254.22 380.092,193.515 380.092,69.056 276.218,129.762 	"/>
	<polygon id="XMLID_2057_" fill="#95C3C5" points="268.476,385.837 164.602,325.132 164.602,200.673 268.476,261.378 	"/>
	<polygon id="XMLID_2056_" fill="#0E7290" points="276.218,385.837 380.092,325.132 380.092,200.673 276.218,261.378 	"/>
	<polygon id="XMLID_2055_" fill="#95C3C5" points="268.476,518.421 164.602,457.716 164.602,333.257 268.476,393.962 	"/>
	<polygon id="XMLID_2054_" fill="#95C3C5" points="272.347,123.413 164.602,59.921 272.347,0.242 380.092,60.244 	"/>
	<polygon id="XMLID_2053_" fill="#95C3C5" points="488.137,381.306 384.567,319.745 384.567,195.562 488.137,257.211 	"/>
	<polygon id="XMLID_2052_" fill="#0E7290" points="495.856,380.229 599.427,323.08 599.427,192.942 495.856,256.134 	"/>
	<polygon id="XMLID_2051_" fill="#0E7290" points="386.901,582.489 490.472,521.961 490.472,397.866 386.901,459.08 	"/>
	<polygon id="XMLID_2050_" fill="#0E7290" points="496.747,515.968 600.317,455.44 600.317,331.345 496.747,392.559 	"/>
	<polygon id="XMLID_2049_" fill="#95C3C5" points="491.997,250.881 384.567,187.574 491.997,128.07 599.427,185.322 	"/>
	<polygon id="XMLID_2048_" fill="#95C3C5" points="379.94,581.973 276.37,520.412 276.37,396.228 379.94,457.878 	"/>
	<polygon id="XMLID_2047_" fill="#95C3C5" points="384.735,451.548 277.305,388.241 383.926,328.114 491.829,388.006 	"/>
</g>
<g id="XMLID_2_">
</g>
<g id="XMLID_3_">
</g>
<g id="XMLID_4_">
</g>
<g id="XMLID_5_">
</g>
<g id="XMLID_6_">
</g>
<g id="XMLID_7_">
</g>
</svg>
