<?xml version="1.0" encoding="utf-8"?>
<!-- Generator: Adobe Illustrator 18.1.1, SVG Export Plug-In . SVG Version: 6.00 Build 0)  -->
<!DOCTYPE svg PUBLIC "-//W3C//DTD SVG 1.1//EN" "http://www.w3.org/Graphics/SVG/1.1/DTD/svg11.dtd">
<svg version="1.1" id="Capa_1" xmlns="http://www.w3.org/2000/svg" xmlns:xlink="http://www.w3.org/1999/xlink" x="0px" y="0px"
	 viewBox="0 0 11.727 11.746" enable-background="new 0 0 11.727 11.746" xml:space="preserve">
<g>
	<path d="M9.964,1.789c0.393-0.395,0.787-0.79,1.199-1.204c0,1.257,0,2.49,0,3.734c-1.239,0-2.468,0-3.705,0
		c0.398-0.392,0.793-0.782,1.204-1.187c-1.176-1.053-2.469-1.41-3.944-0.985C3.861,2.394,3.173,2.902,2.656,3.631
		C2.139,4.359,1.91,5.176,1.939,6.078c-0.621,0-1.228,0-1.862,0C0.048,5.37,0.152,4.68,0.384,4.009
		C0.81,2.776,1.567,1.792,2.646,1.062C4.791-0.391,7.857-0.28,9.964,1.789z" fill="#286181"/>
	<path d="M1.756,9.976c-0.397,0.402-0.784,0.795-1.195,1.211c0-1.263,0-2.492,0-3.736c1.234,0,2.467,0,3.685,0
		C3.861,7.833,3.47,8.222,3.082,8.607c0.717,0.845,2.225,1.449,3.712,1.084c1.742-0.428,3.082-2.066,2.991-4.005
		c0.051-0.004,0.102-0.013,0.153-0.013c0.513-0.001,1.027,0.004,1.54-0.003c0.134-0.002,0.174,0.036,0.176,0.172
		c0.059,3.305-2.839,6.053-6.143,5.822C4.067,11.563,2.829,11.007,1.756,9.976z" fill="#286181"/>
</g>
</svg>
