<?xml version="1.0" encoding="utf-8"?>
<!-- Generator: Adobe Illustrator 19.1.0, SVG Export Plug-In . SVG Version: 6.00 Build 0)  -->
<!DOCTYPE svg PUBLIC "-//W3C//DTD SVG 1.1//EN" "http://www.w3.org/Graphics/SVG/1.1/DTD/svg11.dtd">
<svg version="1.1" id="Capa_1" xmlns="http://www.w3.org/2000/svg" xmlns:xlink="http://www.w3.org/1999/xlink" x="0px" y="0px"
	 viewBox="0 0 9.715 9.715" enable-background="new 0 0 9.715 9.715" xml:space="preserve">
<g>
	<path fill="#7899ae" d="M0.242,9.334l0.139,0.139c0.322,0.322,0.849,0.322,1.171,0l7.922-7.922c0.322-0.322,0.322-0.849,0-1.171
		L9.334,0.242c-0.322-0.322-0.849-0.322-1.171,0L0.242,8.163C-0.08,8.485-0.08,9.012,0.242,9.334z"/>
	<path fill="#7899ae" d="M0.381,0.242L0.242,0.381c-0.322,0.322-0.322,0.849,0,1.171l7.922,7.922c0.322,0.322,0.849,0.322,1.171,0
		l0.139-0.139c0.322-0.322,0.322-0.849,0-1.171L1.552,0.242C1.23-0.081,0.703-0.081,0.381,0.242z"/>
</g>
</svg>
