<?xml version="1.0" encoding="utf-8"?>
<!-- Generator: Adobe Illustrator 18.0.0, SVG Export Plug-In . SVG Version: 6.00 Build 0)  -->
<!DOCTYPE svg PUBLIC "-//W3C//DTD SVG 1.1//EN" "http://www.w3.org/Graphics/SVG/1.1/DTD/svg11.dtd">
<svg version="1.1" id="Capa_1" xmlns="http://www.w3.org/2000/svg" xmlns:xlink="http://www.w3.org/1999/xlink" x="0px" y="0px"
	 viewBox="0 67 928.6 933" enable-background="new 0 67 928.6 933" xml:space="preserve">
<path d="M285.7,464.3c0,68.8,24.5,127.7,73.4,176.6s107.8,73.4,176.6,73.4c68.8,0,127.7-24.5,176.6-73.4
	c48.9-48.9,73.4-107.8,73.4-176.6s-24.5-127.7-73.4-176.6s-107.8-73.4-176.6-73.4c-68.8,0-127.7,24.5-176.6,73.4
	C310.2,336.6,285.7,395.5,285.7,464.3L285.7,464.3z M0,928.6c0-19.7,6.9-36.5,20.6-50.2L212,687c-46.1-66.6-69.2-140.8-69.2-222.6
	c0-53.2,10.3-104.1,31-152.6s48.5-90.4,83.7-125.6c35.2-35.2,77-63.1,125.5-83.7s99.4-31,152.6-31c53.2,0,104.1,10.3,152.6,31
	s90.4,48.5,125.5,83.7s63.1,77,83.7,125.6s31,99.4,31,152.6s-10.3,104.1-31,152.6c-20.6,48.5-48.5,90.4-83.7,125.5
	s-77,63.1-125.5,83.7s-99.4,31-152.6,31c-81.8,0-156.1-23.1-222.6-69.2L121.6,978.8c-13.4,14.1-30.1,21.2-50.2,21.2
	c-19.7,0-36.5-7-50.5-20.9C7,965.1,0,948.3,0,928.6L0,928.6z" fill="#a1bdc4"/>
</svg>
