<?xml version="1.0" encoding="utf-8"?>
<!-- Generator: Adobe Illustrator 19.0.0, SVG Export Plug-In . SVG Version: 6.00 Build 0)  -->
<!DOCTYPE svg PUBLIC "-//W3C//DTD SVG 1.1//EN" "http://www.w3.org/Graphics/SVG/1.1/DTD/svg11.dtd">
<svg version="1.1" id="Capa_1" xmlns="http://www.w3.org/2000/svg" xmlns:xlink="http://www.w3.org/1999/xlink" x="0px" y="0px"
	 viewBox="0 0 64.935 61.744" enable-background="new 0 0 64.935 61.744" xml:space="preserve">
<g>
	<path fill="#A9B7C2" d="M36.813,55.538c0,2.077,0,4.128,0,6.206c-12.284-2.316-24.542-4.627-36.809-6.939c0-0.089,0-0.161,0-0.232
		c0-15.799,0-31.597-0.004-47.396c0-0.181,0.036-0.251,0.231-0.287c3.526-0.658,7.051-1.328,10.576-1.993
		c2.765-0.522,5.53-1.04,8.295-1.561c3.284-0.619,6.567-1.241,9.85-1.86c2.393-0.451,4.787-0.9,7.181-1.35
		C36.35,0.085,36.566,0.045,36.807,0c0,2.074,0,4.119,0,6.194c0.108,0,0.195,0,0.283,0c8.206,0,16.411,0.001,24.617-0.001
		c0.834,0,1.59,0.208,2.221,0.779c0.644,0.583,0.968,1.315,1.005,2.178c0.002,0.054,0.001,0.108,0.001,0.162
		c0,14.369,0,28.738,0,43.107c0,1.063-0.407,1.925-1.268,2.556c-0.541,0.397-1.159,0.562-1.827,0.562
		c-7.911-0.001-15.823,0-23.734,0C37.686,55.538,37.266,55.538,36.813,55.538z M45.715,43.456c0,1.881,0,3.734,0,5.607
		c-2.969,0-5.927,0-8.894,0c0,1.332,0,2.644,0,3.959c8.515,0,17.017,0,25.517,0c0-14.781,0-29.548,0-44.314
		c-8.514,0-17.011,0-25.517,0c0,1.324,0,2.636,0,3.967c2.972,0,5.93,0,8.891,0c0,1.877,0,3.735,0,5.613c-2.972,0-5.929,0-8.904,0
		c0,0.091,0,0.162,0,0.234c0,0.523-0.001,1.045,0,1.568c0.001,0.324-0.022,0.284,0.276,0.284c2.805,0.001,5.611,0.001,8.416,0.001
		c0.077,0,0.154,0,0.241,0c0,1.872,0,3.724,0,5.593c-0.089,0-0.167,0-0.244,0c-2.823,0-5.647,0.001-8.47-0.004
		c-0.171,0-0.226,0.042-0.223,0.219c0.01,0.601,0.003,1.201,0.005,1.802c0,0.069,0.01,0.137,0.017,0.224c2.984,0,5.948,0,8.91,0
		c0,1.871,0,3.723,0,5.591c-0.1,0-0.184,0-0.267,0c-2.817,0-5.635,0.001-8.452-0.003c-0.162,0-0.216,0.041-0.213,0.209
		c0.01,0.57,0.003,1.141,0.004,1.712c0,0.063,0.008,0.127,0.013,0.206c2.99,0,5.96,0,8.938,0c0,1.863,0,3.71,0,5.573
		c-2.983,0-5.954,0-8.935,0c0,0.66,0,1.303,0,1.96C39.796,43.456,42.75,43.456,45.715,43.456z"/>
	<path fill="#A9B7C2" d="M48.062,18.265c0-1.866,0-3.719,0-5.583c3.393,0,6.776,0,10.17,0c0,1.862,0,3.716,0,5.583
		C54.846,18.265,51.462,18.265,48.062,18.265z"/>
	<path fill="#A9B7C2" d="M48.063,43.462c3.392,0,6.771,0,10.164,0c0,1.861,0,3.719,0,5.588c-3.386,0-6.77,0-10.164,0
		C48.063,47.19,48.063,45.336,48.063,43.462z"/>
	<path fill="#A9B7C2" d="M48.052,28.207c3.405,0,6.784,0,10.177,0c0,1.859,0,3.712,0,5.591c-0.06,0-0.124,0-0.187,0
		c-3.255,0-6.51-0.001-9.764,0.004c-0.179,0-0.231-0.042-0.23-0.228c0.008-1.717,0.005-3.435,0.005-5.152
		C48.052,28.357,48.052,28.292,48.052,28.207z"/>
	<path fill="#A9B7C2" d="M48.066,20.383c3.394,0,6.773,0,10.164,0c0,1.857,0,3.704,0,5.568c-3.382,0-6.766,0-10.164,0
		C48.066,24.103,48.066,22.251,48.066,20.383z"/>
	<path fill="#A9B7C2" d="M48.063,35.928c3.389,0,6.768,0,10.163,0c0,1.846,0,3.692,0,5.552c-3.381,0-6.768,0-10.163,0
		C48.063,39.628,48.063,37.782,48.063,35.928z"/>
</g>
<g id="XMLID_105_">
</g>
<g id="XMLID_106_">
</g>
<g id="XMLID_107_">
</g>
<g id="XMLID_108_">
</g>
<g id="XMLID_109_">
</g>
<g id="XMLID_110_">
</g>
</svg>
