<?xml version="1.0" encoding="utf-8"?>
<!-- Generator: Adobe Illustrator 18.0.0, SVG Export Plug-In . SVG Version: 6.00 Build 0)  -->
<!DOCTYPE svg PUBLIC "-//W3C//DTD SVG 1.1//EN" "http://www.w3.org/Graphics/SVG/1.1/DTD/svg11.dtd">
<svg version="1.1" xmlns="http://www.w3.org/2000/svg" xmlns:xlink="http://www.w3.org/1999/xlink" x="0px" y="0px"
	 viewBox="0 0 12.8 12.8" enable-background="new 0 0 12.8 12.8" xml:space="preserve" style="cursor:pointer;">

	 <style type="text/css" >
      <![CDATA[

      	svg:hover
      	{
      		cursor: pointer;
      	}

        svg:hover path {
           fill:   #fff;
        }

      ]]>
    </style>

<g class="draw" id="move">
		<path d="M6.4,12.7C6.4,12.7,6.3,12.7,6.4,12.7C5.7,11.9,5,11,4.3,10.2C4.1,10,4.2,9.8,4.5,9.8c0.1,0,0.2,0,0.3,0c0.3,0,0.7,0,1,0
			c0-1,0-1.9,0-2.9c-1,0-1.9,0-2.9,0c0,0.4,0,0.8,0,1.2c0,0.1,0,0.3-0.1,0.3c-0.1,0-0.2,0-0.3-0.1C2.3,8.3,2.2,8.1,2,8
			C1.3,7.5,0.7,6.9,0,6.4c0,0,0-0.1,0-0.1c0.5-0.3,0.9-0.7,1.4-1c0.4-0.3,0.7-0.6,1.1-0.9c0.1-0.1,0.2-0.1,0.3-0.1
			c0.1,0,0.1,0.2,0.1,0.3c0,0.1,0,0.2,0,0.3c0,0.3,0,0.7,0,1c1,0,1.9,0,2.9,0c0-1,0-1.9,0-2.9c-0.4,0-0.8,0-1.3,0
			c-0.1,0-0.2-0.1-0.3-0.1c0-0.1,0-0.2,0.1-0.3C5,1.7,5.7,0.8,6.3,0c0,0,0,0,0.1,0c0.7,0.8,1.4,1.7,2,2.5c0.2,0.2,0.1,0.4-0.2,0.4
			c-0.1,0-0.2,0-0.3,0c-0.3,0-0.7,0-1,0c0,1,0,1.9,0,2.9c1,0,1.9,0,2.9,0c0-0.2,0-0.4,0-0.6c0-0.2,0-0.4,0-0.6
			c0-0.3,0.2-0.4,0.4-0.2c0.8,0.7,1.7,1.3,2.5,2c0,0,0,0,0,0.1c-0.5,0.4-1,0.8-1.5,1.2c-0.3,0.3-0.7,0.5-1,0.8
			C10.1,8.4,10,8.5,9.9,8.4c0,0-0.1-0.2-0.1-0.3c0-0.1,0-0.2,0-0.3c0-0.3,0-0.7,0-1c-0.9,0-1.8,0-2.7,0C6.9,6.9,6.9,7,6.9,7.1
			c0,0.8,0,1.6,0,2.4c0,0.1,0,0.2,0,0.3c0.4,0,0.8,0,1.2,0c0.1,0,0.3,0.1,0.3,0.1c0,0.1,0,0.2-0.1,0.3C8.2,10.5,8,10.7,7.8,11
			C7.3,11.6,6.8,12.1,6.4,12.7z" fill="#a1bdc4"/>
</g>
</svg>
