<?xml version="1.0" encoding="utf-8"?>
<!-- Generator: Adobe Illustrator 19.0.0, SVG Export Plug-In . SVG Version: 6.00 Build 0)  -->
<!DOCTYPE svg PUBLIC "-//W3C//DTD SVG 1.1//EN" "http://www.w3.org/Graphics/SVG/1.1/DTD/svg11.dtd">
<svg version="1.1" id="Capa_1" xmlns="http://www.w3.org/2000/svg" xmlns:xlink="http://www.w3.org/1999/xlink" x="0px" y="0px"
	 viewBox="0 0 121.181 121.186" enable-background="new 0 0 121.181 121.186" xml:space="preserve">
<g id="XMLID_2_">
	<path id="XMLID_4_" fill="#A9B7C2" d="M121.18,60.609c-0.002,33.488-27.119,60.558-60.623,60.577
		C27.196,121.204-0.192,93.97,0.001,60.21c0.19-33.214,27.368-60.484,61.13-60.208C94.219,0.272,121.232,27.262,121.18,60.609z
		 M60.604,116.208c30.285,0.229,55.581-24.932,55.651-55.491c0.07-30.427-24.972-55.619-55.351-55.78
		C30.29,4.773,5.033,29.962,4.936,60.414C4.838,90.963,30.05,116.429,60.604,116.208z"/>
	<path id="XMLID_3_" fill="#A9B7C2" d="M63.927,62.384c0,8.468,0,16.849,0,25.265c-1.613,0-3.177,0-4.811,0
		c0-8.397,0-16.791,0-25.228c-8.449,0-16.83,0-25.252,0c0-1.626,0-3.208,0-4.856c8.38,0,16.775,0,25.212,0
		c0-8.485,0-16.905,0-25.369c1.626,0,3.209,0,4.838,0c0,8.428,0,16.85,0,25.334c8.481,0,16.917,0,25.388,0c0,1.644,0,3.227,0,4.852
		C80.86,62.384,72.439,62.384,63.927,62.384z"/>
</g>
<g id="XMLID_71_">
</g>
<g id="XMLID_72_">
</g>
<g id="XMLID_73_">
</g>
<g id="XMLID_74_">
</g>
<g id="XMLID_75_">
</g>
<g id="XMLID_76_">
</g>
</svg>
