<?xml version="1.0" encoding="utf-8"?>
<!-- Generator: Adobe Illustrator 19.0.0, SVG Export Plug-In . SVG Version: 6.00 Build 0)  -->
<!DOCTYPE svg PUBLIC "-//W3C//DTD SVG 1.1//EN" "http://www.w3.org/Graphics/SVG/1.1/DTD/svg11.dtd">
<svg version="1.1" id="Capa_1" xmlns="http://www.w3.org/2000/svg" xmlns:xlink="http://www.w3.org/1999/xlink" x="0px" y="0px"
	 viewBox="0 0 30.11 27.91" enable-background="new 0 0 30.11 27.91" xml:space="preserve">
<g id="XMLID_2_">
	<path id="XMLID_3_" fill="#FFFFFF" d="M0,27.91c0.035-2.188,0.321-4.271,1.634-6.082c0.551-0.761,1.319-1.243,2.127-1.68
		c1.783-0.965,3.717-1.535,5.622-2.186c0.504-0.172,1.003-0.367,1.483-0.596c0.631-0.302,1.099-1.199,1.016-1.88
		c-0.011-0.089-0.073-0.178-0.128-0.255c-1.357-1.88-2.098-4.012-2.532-6.261c-0.254-1.316-0.378-2.646-0.228-3.99
		c0.23-2.056,1.032-3.72,3.094-4.509c1.061-0.405,2.179-0.537,3.299-0.438c0.827,0.073,1.676,0.194,2.455,0.465
		c1.786,0.62,2.669,2.03,2.978,3.824c0.404,2.346,0.006,4.623-0.687,6.862c-0.426,1.375-1.032,2.665-1.817,3.879
		c-0.14,0.217-0.066,0.604-0.021,0.903c0.108,0.733,0.473,1.294,1.203,1.557c1.221,0.44,2.458,0.836,3.658,1.326
		c1.255,0.512,2.491,1.08,3.704,1.685c1.36,0.678,2.152,1.863,2.643,3.259c0.464,1.321,0.607,2.694,0.607,4.118
		C20.075,27.91,10.064,27.91,0,27.91z"/>
</g>
<g id="XMLID_55_">
</g>
<g id="XMLID_56_">
</g>
<g id="XMLID_57_">
</g>
<g id="XMLID_58_">
</g>
<g id="XMLID_59_">
</g>
<g id="XMLID_60_">
</g>
</svg>
