<?xml version="1.0" encoding="utf-8"?>
<!-- Generator: Adobe Illustrator 18.0.0, SVG Export Plug-In . SVG Version: 6.00 Build 0)  -->
<!DOCTYPE svg PUBLIC "-//W3C//DTD SVG 1.1//EN" "http://www.w3.org/Graphics/SVG/1.1/DTD/svg11.dtd">
<svg version="1.1" id="Capa_1" xmlns="http://www.w3.org/2000/svg" xmlns:xlink="http://www.w3.org/1999/xlink" x="0px" y="0px"
     viewBox="0 0 400 400" enable-background="new 0 0 400 400" xml:space="preserve">

     <style type="text/css" >
      <![CDATA[

        svg:hover
        {
            cursor: pointer;
        }

        svg:hover polygon {
           fill:   #fff;
        }

      ]]>
    </style>
<g>
	<path fill="#fff" d="M302.6,396.7h55c0.5,0,0.8-0.4,0.8-0.8V4.5c0-0.5-0.4-0.8-0.8-0.8h-55c-0.5,0-0.8,0.4-0.8,0.8v391.4
		C301.8,396.4,302.1,396.7,302.6,396.7z"/>
	<path fill="#fff" d="M206.6,200.4L57.8,349.2c-10.9,10.9-10.9,28.9,0,39.8l0,0c10.9,10.9,28.9,10.9,39.8,0l188.6-188.6l-0.3-0.3
		L97.6,11.8c-10.9-10.9-28.9-10.9-39.8,0l0,0c-10.9,10.9-10.9,28.9,0,39.8C57.8,51.6,206.6,200.4,206.6,200.4z"/>
</g>
</svg>
