<?xml version="1.0" encoding="utf-8"?>
<!-- Generator: Adobe Illustrator 18.1.1, SVG Export Plug-In . SVG Version: 6.00 Build 0)  -->
<!DOCTYPE svg PUBLIC "-//W3C//DTD SVG 1.1//EN" "http://www.w3.org/Graphics/SVG/1.1/DTD/svg11.dtd">
<svg version="1.1" id="Capa_1" xmlns="http://www.w3.org/2000/svg" xmlns:xlink="http://www.w3.org/1999/xlink" x="0px" y="0px"
	 viewBox="0 0 18.104 11.707" enable-background="new 0 0 18.104 11.707" xml:space="preserve">
<g>
	<path d="M8.951,0c0.141,0,0.282,0,0.422,0c0.012,0.002,0.023,0.004,0.035,0.005c0.135,0.009,0.271,0.012,0.405,0.029
		c0.184,0.024,0.368,0.051,0.549,0.09c0.886,0.187,1.685,0.563,2.402,1.116c0.039,0.03,0.082,0.06,0.128,0.076
		c1.088,0.361,2.177,0.719,3.266,1.079c0.544,0.179,1.087,0.358,1.63,0.54c0.107,0.036,0.211,0.082,0.316,0.124
		c0,0.255,0,0.51,0,0.764c-0.088,0.044-0.175,0.09-0.265,0.129c-0.04,0.017-0.053,0.037-0.053,0.081
		c0.001,0.868,0.001,1.736,0.001,2.604c0,0.02,0,0.039,0,0.06c0.115,0.02,0.225,0.044,0.317,0.114c0,0.261,0,0.523,0,0.784
		c-0.062,0.035-0.123,0.075-0.188,0.106c-1.459,0.692-2.919,1.383-4.379,2.075c-0.026,0.013-0.052,0.031-0.072,0.052
		c-0.204,0.223-0.426,0.427-0.662,0.615c-0.616,0.491-1.304,0.842-2.062,1.055c-0.303,0.085-0.61,0.147-0.925,0.173
		c-0.3,0.025-0.6,0.048-0.902,0.033c-0.338-0.017-0.673-0.056-1.004-0.129c-1.049-0.232-1.968-0.715-2.754-1.447
		C4.686,9.688,4.3,9.183,3.995,8.616C3.983,8.593,3.96,8.572,3.937,8.56C3.789,8.481,3.641,8.405,3.492,8.328
		c-0.78-0.402-1.56-0.804-2.339-1.206C0.931,7.008,0.708,6.897,0.489,6.78C0.274,6.664,0.106,6.504,0.038,6.26
		C0.021,6.203,0.012,6.143,0,6.085C0,5.967,0,5.85,0,5.733c0.003-0.07,0.008-0.14,0.008-0.21c0.001-0.373,0.001-0.746,0-1.119
		c0-0.123-0.005-0.247-0.008-0.37C0,3.751,0,3.47,0,3.188c0.003-0.021,0.007-0.042,0.01-0.064C0.03,2.983,0.073,2.852,0.168,2.741
		c0.119-0.139,0.276-0.215,0.446-0.267c0.609-0.188,1.219-0.373,1.829-0.559C3.63,1.554,4.818,1.194,6.005,0.832
		c0.121-0.037,0.246-0.068,0.358-0.126c0.338-0.175,0.684-0.327,1.047-0.44c0.384-0.12,0.776-0.2,1.177-0.237
		C8.708,0.018,8.83,0.01,8.951,0z M14.514,5.851c-0.002-2.944-2.383-5.313-5.282-5.346C6.215,0.47,3.85,2.869,3.806,5.764
		C3.76,8.762,6.154,11.171,9.1,11.204C12.204,11.238,14.525,8.701,14.514,5.851z M14.357,8.568c0.012-0.005,0.023-0.008,0.033-0.013
		c0.322-0.155,0.644-0.31,0.966-0.466c0.678-0.328,1.356-0.658,2.034-0.985c0.038-0.018,0.049-0.039,0.049-0.079
		c-0.001-0.949-0.001-1.897-0.001-2.846c0-0.018,0-0.035,0-0.06c-0.025,0.01-0.041,0.016-0.058,0.023
		c-0.605,0.254-1.21,0.509-1.815,0.763c-0.182,0.076-0.364,0.151-0.546,0.227c-0.019,0.008-0.046,0.009-0.04,0.046
		c0.009,0.063,0.012,0.126,0.018,0.19c0.035,0.419,0.024,0.836-0.03,1.253c-0.061,0.473-0.178,0.931-0.356,1.373
		C14.534,8.187,14.443,8.375,14.357,8.568z M3.388,4.799C3.435,4.607,3.48,4.423,3.525,4.236C3.513,4.23,3.498,4.222,3.483,4.214
		c-0.578-0.274-1.156-0.549-1.735-0.82C1.476,3.267,1.2,3.148,0.925,3.026C0.909,3.019,0.88,3.018,0.868,3.028
		c-0.056,0.045-0.114,0.09-0.159,0.145C0.681,3.208,0.657,3.262,0.662,3.304C0.676,3.441,0.723,3.562,0.87,3.612
		C0.905,3.624,0.938,3.64,0.972,3.655c0.71,0.336,1.419,0.672,2.129,1.008C3.197,4.709,3.293,4.754,3.388,4.799z" fill="#C8E2E8"/>
	<path d="M9.825,5.188c0.027,0,0.049,0,0.07,0c1.19,0,2.38,0.002,3.57-0.002c0.177-0.001,0.311,0.141,0.306,0.304
		c-0.008,0.246-0.002,0.493-0.002,0.739c0,0.167-0.121,0.287-0.289,0.287c-1.195,0-2.39,0-3.585,0c-0.021,0-0.043,0-0.069,0
		c0,0.026,0,0.047,0,0.069c0,1.19-0.001,2.38,0.001,3.57c0,0.176-0.131,0.312-0.308,0.307c-0.241-0.008-0.483-0.002-0.724-0.002
		c-0.185,0-0.299-0.115-0.299-0.301c0-1.188,0-2.377,0-3.565c0-0.023,0-0.046,0-0.077c-0.025,0-0.046,0-0.067,0
		c-1.192,0-2.384,0-3.575,0c-0.186,0-0.305-0.118-0.305-0.303c0-0.241,0.002-0.483-0.001-0.724C4.545,5.298,4.696,5.186,4.848,5.186
		C6.04,5.19,7.232,5.188,8.424,5.188c0.021,0,0.043,0,0.071,0c0-0.028,0-0.051,0-0.074c0-1.19,0-2.38,0-3.57
		c0-0.147,0.071-0.25,0.201-0.289c0.03-0.009,0.063-0.011,0.094-0.011c0.246-0.001,0.493-0.001,0.739,0
		c0.178,0,0.296,0.119,0.296,0.296c0,1.193,0,2.387,0,3.58C9.825,5.141,9.825,5.162,9.825,5.188z" fill="#C8E2E8"/>
</g>

</svg>
