<?xml version="1.0" encoding="utf-8"?>
<!-- Generator: Adobe Illustrator 18.1.1, SVG Export Plug-In . SVG Version: 6.00 Build 0)  -->
<!DOCTYPE svg PUBLIC "-//W3C//DTD SVG 1.1//EN" "http://www.w3.org/Graphics/SVG/1.1/DTD/svg11.dtd">
<svg version="1.1" id="Capa_1" xmlns="http://www.w3.org/2000/svg" xmlns:xlink="http://www.w3.org/1999/xlink" x="0px" y="0px"
     viewBox="0 0 18.22 11.366" enable-background="new 0 0 18.22 11.366" xml:space="preserve">
<g>
    <g>
        <path d="M9.718,10.663c0.562-0.269,1.077-0.514,1.59-0.761c2.014-0.97,4.029-1.938,6.039-2.917
            c0.121-0.059,0.195-0.213,0.341-0.381c0.149,0.02,0.38,0.074,0.492,0.334c0.112,0.259-0.007,0.492-0.333,0.647
            c-1.224,0.582-2.45,1.16-3.675,1.739c-1.384,0.655-2.77,1.307-4.152,1.967C9.8,11.397,9.607,11.39,9.393,11.279
            C6.445,9.754,3.497,8.23,0.544,6.716C0.16,6.519-0.01,6.251,0,5.815c0.021-0.864,0.006-1.728,0.006-2.592
            c0-0.443,0.175-0.681,0.605-0.813c2.55-0.78,5.1-1.558,7.65-2.337c0.34-0.104,0.677-0.096,1.013,0.015
            c2.691,0.887,5.382,1.774,8.073,2.661c0.159,0.052,0.318,0.105,0.478,0.154c0.228,0.071,0.366,0.226,0.369,0.461
            c0.003,0.224-0.132,0.371-0.339,0.458c-0.942,0.394-1.883,0.79-2.824,1.186c-1.59,0.669-3.18,1.34-4.772,2.005
            C9.893,7.166,9.708,7.415,9.714,7.824c0.012,0.846,0.004,1.693,0.004,2.539C9.718,10.448,9.718,10.532,9.718,10.663z M0.881,2.94
            C0.807,3.01,0.693,3.072,0.664,3.161c-0.027,0.08,0.02,0.203,0.07,0.285c0.036,0.059,0.129,0.087,0.2,0.121
            c1.415,0.67,2.831,1.339,4.247,2.009c1.137,0.538,2.274,1.077,3.413,1.612c0.1,0.047,0.228,0.108,0.319,0.08
            c0.095-0.029,0.243-0.186,0.225-0.233c-0.049-0.13-0.15-0.279-0.271-0.337C6.311,5.476,3.75,4.266,1.189,3.055
            C1.103,3.014,1.01,2.987,0.881,2.94z" fill="#64859a"/>
    </g>
    <polyline points="17.688,6.604 17.688,3.892 17.341,4.037 17.341,6.985   " fill="#64859a"/>
</g>
</svg>
