<?xml version="1.0" encoding="utf-8"?>
<!-- Generator: Adobe Illustrator 18.0.0, SVG Export Plug-In . SVG Version: 6.00 Build 0)  -->
<!DOCTYPE svg PUBLIC "-//W3C//DTD SVG 1.1//EN" "http://www.w3.org/Graphics/SVG/1.1/DTD/svg11.dtd">
<svg version="1.1" xmlns="http://www.w3.org/2000/svg" xmlns:xlink="http://www.w3.org/1999/xlink" x="0px" y="0px"
     viewBox="0 0 12.8 12.8" enable-background="new 0 0 12.8 12.8" xml:space="preserve">
<g class="draw" id="erase">
		<path d="M6.4,10.5C5.8,9.9,5.1,9.3,4.5,8.6c2.1-2.1,4.3-4.3,6.4-6.4c0.1,0.1,0.3,0.3,0.4,0.4c0.4,0.4,0.8,0.8,1.1,1.1
			c0.4,0.4,0.4,0.7,0,1c-2,2-4,4-6,6c0,0-0.1,0.1-0.2,0.1c0,0,0,0,0,0.1c1.1,0,2.2,0,3.2,0c0,0.1,0,0.2,0,0.3c-0.1,0-0.1,0-0.2,0
			c-2.2,0-4.4,0-6.6,0c-0.1,0-0.2,0-0.3-0.1C1.8,10.4,1,9.7,0.3,8.9c-0.3-0.3-0.3-0.6,0-1c2.6-2.6,5.1-5.1,7.7-7.7
			c0.3-0.3,0.6-0.3,1,0c0.5,0.5,1,1,1.5,1.5c0,0,0.1,0.1,0.1,0.1C8.4,4,6.2,6.1,4.1,8.2C3.5,7.6,2.9,7,2.2,6.4C1.6,7,1,7.6,0.4,8.2
			c-0.1,0.1-0.1,0.3,0,0.4c0.8,0.8,1.5,1.5,2.3,2.3c0,0,0.1,0.1,0.2,0.1c1,0,1.9,0,2.9,0c0.1,0,0.1,0,0.2-0.1
			C6.1,10.8,6.3,10.7,6.4,10.5z" fill="#B7D5DC"/>
</g>
</svg>
