<?xml version="1.0" encoding="utf-8"?>
<!-- Generator: Adobe Illustrator 18.0.0, SVG Export Plug-In . SVG Version: 6.00 Build 0)  -->
<!DOCTYPE svg PUBLIC "-//W3C//DTD SVG 1.1//EN" "http://www.w3.org/Graphics/SVG/1.1/DTD/svg11.dtd">
<svg version="1.1" id="Capa_1" xmlns="http://www.w3.org/2000/svg" xmlns:xlink="http://www.w3.org/1999/xlink" x="0px" y="0px"
	 viewBox="0 0 12.7 12.1" enable-background="new 0 0 12.7 12.1" xml:space="preserve">
	 <style type="text/css" >
      <![CDATA[

        svg:hover
        {
            cursor: pointer;
        }

        svg:hover polygon {
           fill:   #fff;
        }

      ]]>
    </style>
<g>
	<path fill="#286186" d="M0,12.1C0,8.1,0,4,0,0c1.2,0,10.2,0,12.7,0c0,4.1,0,8.1,0,12.2C10.2,12.1,1.3,12.1,0,12.1z M11.5,1.2c-3.4,0-6.9,0-10.3,0
		c0,3.3,0,6.5,0,9.7c3.4,0,6.9,0,10.3,0C11.5,7.7,11.5,4.4,11.5,1.2z"/>
	<path fill="#286186" d="M6.3,7.2C6,7.6,5.7,7.9,5.5,8.3C5.3,8.6,5.1,8.9,4.8,9.1c0,0.1-0.1,0.1-0.2,0.1c-0.6,0-1.3,0-1.9,0c0,0,0,0-0.1,0
		C3.5,8.1,4.4,7,5.3,5.9C4.6,4.9,3.9,4,3.2,3c0.1,0,0.1,0,0.2,0c0.6,0,1.2,0,1.8,0c0.1,0,0.2,0,0.2,0.1C5.7,3.5,5.9,4,6.2,4.4
		c0,0.1,0.1,0.1,0.1,0.2c0.1-0.1,0.1-0.2,0.2-0.3C6.8,3.9,7,3.5,7.3,3.1C7.4,3,7.5,3,7.5,3c0.7,0,1.3,0,2,0c0,0,0,0,0.1,0
		C8.8,4,8.1,4.9,7.3,5.9C8.2,7,9,8.1,9.9,9.2c-0.1,0-0.1,0-0.2,0c-0.6,0-1.2,0-1.8,0c-0.1,0-0.2,0-0.3-0.1C7.3,8.5,6.9,8,6.5,7.4
		C6.4,7.3,6.4,7.3,6.3,7.2z"/>
</g>
</svg>
