<?xml version="1.0" encoding="utf-8"?>
<!-- Generator: Adobe Illustrator 18.0.0, SVG Export Plug-In . SVG Version: 6.00 Build 0)  -->
<!DOCTYPE svg PUBLIC "-//W3C//DTD SVG 1.1//EN" "http://www.w3.org/Graphics/SVG/1.1/DTD/svg11.dtd">
<svg version="1.1" id="Capa_1" xmlns="http://www.w3.org/2000/svg" xmlns:xlink="http://www.w3.org/1999/xlink" x="0px" y="0px"
	 viewBox="0 0 400 400" enable-background="new 0 0 400 400" xml:space="preserve">

     <style type="text/css" >
      <![CDATA[

        svg:hover
        {
            cursor: pointer;
        }

        svg:hover polygon {
           fill:   #fff;
        }

      ]]>
    </style>

<g class="draw">
	<path fill="#fff" d="M105.4,396.7h-55c-0.5,0-0.8-0.4-0.8-0.8l0-391.4c0-0.5,0.4-0.8,0.8-0.8h55c0.5,0,0.8,0.4,0.8,0.8l0,391.4
		C106.2,396.4,105.9,396.7,105.4,396.7z"/>
	<path fill="#fff" d="M201.4,200.4l148.8,148.8c10.9,10.9,10.9,28.9,0,39.8l0,0c-10.9,10.9-28.9,10.9-39.8,0L121.8,200.4l0.3-0.3
		L310.4,11.8c10.9-10.9,28.9-10.9,39.8,0l0,0c10.9,10.9,10.9,28.9,0,39.8C350.2,51.6,201.4,200.4,201.4,200.4z"/>
</g>
</svg>
