<?xml version="1.0" encoding="utf-8"?>
<!-- Generator: Adobe Illustrator 18.1.1, SVG Export Plug-In . SVG Version: 6.00 Build 0)  -->
<!DOCTYPE svg PUBLIC "-//W3C//DTD SVG 1.1//EN" "http://www.w3.org/Graphics/SVG/1.1/DTD/svg11.dtd">
<svg version="1.1" id="Capa_1" xmlns="http://www.w3.org/2000/svg" xmlns:xlink="http://www.w3.org/1999/xlink" x="0px" y="0px"
	 viewBox="0 0 15.876 13" enable-background="new 0 0 15.876 13" xml:space="preserve">
<g>
	<g>
		<path d="M11.114,5.623c0.032,0.003,0.048,0.005,0.064,0.006c0.849,0.025,1.524,0.721,1.524,1.573c0,1.331,0,2.661,0,3.992
			c0,0.539-0.231,0.959-0.654,1.283c-0.204,0.156-0.443,0.228-0.685,0.296c-2.282,0-4.564,0-6.846,0
			c-0.018-0.008-0.035-0.02-0.054-0.024c-0.774-0.143-1.295-0.855-1.288-1.567c0.013-1.326,0.004-2.653,0.004-3.979
			c0-0.715,0.479-1.341,1.17-1.521c0.133-0.035,0.273-0.047,0.417-0.071 M6.367,5.626c1.05,0,2.096,0,3.156,0 M8.337,10.143
			C8.337,10.143,8.337,10.143,8.337,10.143c0-0.186,0.004-0.372-0.001-0.557C8.333,9.504,8.359,9.453,8.425,9.402
			C8.793,9.117,8.831,8.61,8.516,8.268C8.203,7.929,7.675,7.93,7.363,8.27C7.048,8.613,7.088,9.124,7.457,9.404
			c0.069,0.052,0.088,0.105,0.087,0.185c-0.003,0.376-0.002,0.752-0.001,1.127c0,0.141,0.029,0.272,0.143,0.367
			c0.121,0.101,0.26,0.124,0.405,0.063c0.167-0.07,0.239-0.21,0.244-0.383C8.342,10.556,8.337,10.35,8.337,10.143z" fill="#fff"/>
	</g>
	<path d="M9.526,5.705c0-0.748,0.002-1.41-0.001-2.158c0-0.119-0.009-0.24-0.032-0.357c-0.16-0.793-0.874-1.347-1.654-1.288
		C7.021,1.963,6.386,2.599,6.362,3.424c-0.023,0.797-0.009,1.483-0.01,2.281L4.764,5.687c0-0.76-0.002-1.435,0-2.195
		c0-0.14,0.007-0.281,0.023-0.419C4.94,1.827,5.841,0.774,7.053,0.43c0.177-0.05,0.359-0.082,0.539-0.123c0.231,0,0.463,0,0.694,0
		C8.37,0.324,8.453,0.343,8.537,0.358c1.449,0.253,2.576,1.591,2.576,3.061c0,0.769,0,1.514,0,2.282" fill="#fff"/>
	<path display="none" d="M14.29,5.705c0-0.748,0.002-1.41-0.001-2.158c0-0.119-0.009-0.24-0.032-0.357
		c-0.16-0.793-0.874-1.347-1.654-1.288c-0.818,0.062-1.453,0.698-1.477,1.523c-0.023,0.797-0.009,1.483-0.01,2.281L9.528,5.687
		c0-0.76-0.002-1.435,0-2.195c0-0.14,0.007-0.281,0.023-0.419c0.152-1.246,1.053-2.299,2.264-2.643
		c0.177-0.05,0.359-0.082,0.539-0.123c0.231,0,0.463,0,0.694,0c0.084,0.017,0.167,0.036,0.251,0.051
		c1.449,0.253,2.576,1.591,2.576,3.061c0,0.769,0,1.514,0,2.282" fill="#fff"/>
</g>
</svg>
