<?xml version="1.0" encoding="utf-8"?>
<!-- Generator: Adobe Illustrator 18.1.1, SVG Export Plug-In . SVG Version: 6.00 Build 0)  -->
<!DOCTYPE svg PUBLIC "-//W3C//DTD SVG 1.1//EN" "http://www.w3.org/Graphics/SVG/1.1/DTD/svg11.dtd">
<svg version="1.1" id="Capa_1" xmlns="http://www.w3.org/2000/svg" xmlns:xlink="http://www.w3.org/1999/xlink" x="0px" y="0px"
	 viewBox="0 0 12.672 11.735" enable-background="new 0 0 12.672 11.735" xml:space="preserve">
<g>
	<path d="M7.596,11.735c-0.221-0.046-0.417-0.075-0.606-0.128c-0.367-0.104-0.719-0.246-1.028-0.477
		c-0.247-0.185-0.447-0.412-0.521-0.719c-0.035-0.147-0.04-0.304-0.04-0.456C5.399,8.78,5.4,7.606,5.4,6.432
		c0-0.403-0.003-0.4-0.331-0.621C4.2,5.227,3.323,4.655,2.469,4.05C1.722,3.522,0.973,2.991,0.335,2.326
		c-0.1-0.104-0.195-0.217-0.268-0.34C0.021,1.906-0.01,1.796,0.003,1.707c0.042-0.28,0.159-0.524,0.392-0.706
		c0.343-0.267,0.737-0.425,1.148-0.541C2.16,0.288,2.793,0.2,3.429,0.125C4.714-0.026,6.004-0.004,7.292,0.01
		C8,0.017,8.71,0.051,9.415,0.111c0.72,0.061,1.437,0.167,2.119,0.422c0.252,0.094,0.502,0.222,0.718,0.381
		c0.393,0.288,0.521,0.673,0.336,1.137c-0.048,0.121-0.156,0.225-0.255,0.317c-0.347,0.321-0.693,0.643-1.055,0.946
		c-1.129,0.944-2.334,1.786-3.539,2.629C7.647,6.008,7.613,6.075,7.613,6.186c0.003,1.743,0.003,3.486,0.002,5.229
		C7.615,11.509,7.604,11.603,7.596,11.735z M6.53,0.683c0,0.015,0,0.03-0.001,0.045c-0.473,0-0.946-0.003-1.419,0.001
		C4.925,0.731,4.738,0.742,4.552,0.76C4.021,0.812,3.491,0.866,2.961,0.926c-0.493,0.056-0.98,0.143-1.444,0.325
		C1.378,1.306,1.249,1.393,1.127,1.481C1.03,1.55,1.041,1.654,1.121,1.728c0.08,0.075,0.172,0.153,0.273,0.186
		c0.316,0.105,0.635,0.212,0.961,0.277c0.952,0.19,1.918,0.266,2.886,0.297c0.849,0.027,1.7,0.01,2.551,0.003
		C8.131,2.488,8.471,2.467,8.81,2.438c0.354-0.03,0.709-0.064,1.06-0.121c0.488-0.079,0.974-0.17,1.456-0.28
		c0.185-0.042,0.364-0.136,0.528-0.235c0.192-0.117,0.195-0.271,0.006-0.386c-0.166-0.101-0.351-0.181-0.537-0.239
		c-0.836-0.256-1.702-0.33-2.567-0.395C8.015,0.726,7.272,0.715,6.53,0.683z" fill="#a1bdc4"/>
</g>
<g>
	<g>
		<path d="M11.457,11.273l-0.848-1.069l-0.87,1.069c-0.125,0.149-0.232,0.256-0.319,0.319c-0.087,0.064-0.198,0.096-0.332,0.096
			c-0.148,0-0.275-0.04-0.379-0.119c-0.104-0.08-0.157-0.171-0.157-0.274c0-0.105,0.08-0.256,0.24-0.452l1.058-1.3L8.914,8.459
			C8.751,8.281,8.669,8.125,8.669,7.993c0-0.103,0.049-0.192,0.146-0.268c0.097-0.076,0.224-0.114,0.381-0.114
			c0.137,0,0.25,0.033,0.34,0.099c0.09,0.066,0.195,0.17,0.315,0.312l0.758,0.889l0.736-0.889c0.123-0.147,0.229-0.252,0.319-0.316
			c0.09-0.063,0.202-0.095,0.336-0.095c0.154,0,0.282,0.037,0.383,0.112c0.102,0.075,0.152,0.165,0.152,0.27
			c0,0.076-0.021,0.149-0.062,0.219c-0.042,0.069-0.105,0.152-0.191,0.248l-0.938,1.084l1.058,1.3
			c0.166,0.203,0.249,0.356,0.249,0.459c0,0.105-0.052,0.196-0.154,0.272c-0.103,0.076-0.23,0.114-0.381,0.114
			c-0.134,0-0.248-0.033-0.34-0.099S11.578,11.418,11.457,11.273z" fill="#a1bdc4"/>
	</g>
</g>
<g>
</g>
<g>
</g>
<g>
</g>
<g>
</g>
<g>
</g>
<g>
</g>
</svg>
