<?xml version="1.0" encoding="utf-8"?>
<!-- Generator: Adobe Illustrator 18.0.0, SVG Export Plug-In . SVG Version: 6.00 Build 0)  -->
<!DOCTYPE svg PUBLIC "-//W3C//DTD SVG 1.1//EN" "http://www.w3.org/Graphics/SVG/1.1/DTD/svg11.dtd">
<svg version="1.1" xmlns="http://www.w3.org/2000/svg" xmlns:xlink="http://www.w3.org/1999/xlink" x="0px" y="0px"
	 viewBox="0 0 12.8 12.8" enable-background="new 0 0 12.8 12.8" xml:space="preserve">

	 <style type="text/css" >
      <![CDATA[

      	svg:hover
      	{
      		cursor: pointer;
      	}

        svg:hover path {
           fill:   #fff;
        }

      ]]>
    </style>

<g id="Capa_4">
		<path d="M6.4,12.7c-1.7,0-3.3,0-5,0c-0.8,0-1.4-0.6-1.4-1.4c0-1,0-2,0-3c0-2.3,0-4.6,0-6.9C0,0.7,0.7,0,1.5,0C4.3,0,7.2,0,10,0
			c0.2,0,0.4,0.1,0.5,0.2c0.8,0.6,1.5,1.3,2.1,2.1c0.1,0.1,0.1,0.3,0.1,0.5c0,2.8,0,5.7,0,8.5c0,0.8-0.6,1.4-1.4,1.4
			C9.7,12.7,8,12.7,6.4,12.7z M6.4,6.4C6.4,6.4,6.4,6.4,6.4,6.4c-1.5,0-2.9,0-4.4,0c-0.4,0-0.6,0.2-0.6,0.6c0,1.6,0,3.2,0,4.8
			c0,0.4,0.2,0.6,0.6,0.6c0.3,0,0.7,0,1,0c2.6,0,5.1,0,7.7,0c0.5,0,0.7-0.1,0.7-0.7c0-0.1,0-0.1,0-0.2c0-1.5,0-3,0-4.5
			c0-0.4-0.2-0.6-0.6-0.6C9.3,6.4,7.8,6.4,6.4,6.4z M6.2,4.9C6.2,4.9,6.2,4.9,6.2,4.9c1,0,2.1,0,3.1,0c0.4,0,0.6-0.2,0.6-0.6
			c0-1.1,0-2.1,0-3.2c0-0.5-0.1-0.7-0.6-0.7c-2.1,0-4.2,0-6.3,0C2.7,0.4,2.4,0.7,2.4,1c0,1.1,0,2.2,0,3.3c0,0.5,0.2,0.7,0.7,0.7
			C4.1,4.9,5.2,4.9,6.2,4.9z" fill="#a1bdc4"/>
		<path d="M8.8,1c0,1.1,0,2.2,0,3.2c0,0.1-0.1,0.2-0.2,0.2c-0.4,0-0.7,0-1.1,0c-0.1,0-0.2-0.1-0.2-0.2c0-1,0-2,0-3
			C7.4,1.1,7.5,1,7.5,1C8,1,8.4,1,8.8,1z" fill="#a1bdc4"/>
</g>
</svg>
