<?xml version="1.0" encoding="utf-8"?>
<!-- Generator: Adobe Illustrator 18.1.1, SVG Export Plug-In . SVG Version: 6.00 Build 0)  -->
<!DOCTYPE svg PUBLIC "-//W3C//DTD SVG 1.1//EN" "http://www.w3.org/Graphics/SVG/1.1/DTD/svg11.dtd">
<svg version="1.1" id="Capa_1" xmlns="http://www.w3.org/2000/svg" xmlns:xlink="http://www.w3.org/1999/xlink" x="0px" y="0px"
	 viewBox="0 0 9.77 11.573" enable-background="new 0 0 9.77 11.573" xml:space="preserve">
<g>
	<path d="M7.664,11.573c-1.853,0-3.707,0-5.56,0c-0.028-0.008-0.057-0.019-0.085-0.022c-0.225-0.029-0.427-0.116-0.606-0.254
		c-0.366-0.282-0.53-0.66-0.529-1.118c0.002-2.155,0.001-4.31,0.001-6.464c0-0.048,0-0.095,0-0.157c-0.302,0-0.59,0-0.884,0
		C0,3.255,0,2.967,0,2.67c0.148,0,0.286,0,0.435,0c0-0.133,0-0.257,0-0.38C0.436,1.961,0.61,1.787,0.936,1.786
		c0.524-0.001,1.047,0,1.571,0c0.043,0,0.087,0,0.139,0c0-0.06,0-0.101,0-0.142c0.003-0.678,0.295-1.185,0.899-1.5
		C3.667,0.081,3.805,0.047,3.935,0C4.568,0,5.2,0,5.833,0c0.02,0.008,0.04,0.019,0.061,0.025C6.59,0.219,6.991,0.678,7.109,1.385
		c0.021,0.128,0.014,0.26,0.021,0.401c0.054,0,0.098,0,0.143,0c0.516,0,1.032,0,1.548,0.001c0.06,0,0.122,0,0.179,0.015
		C9.203,1.853,9.327,2.02,9.332,2.244c0.003,0.141,0.001,0.283,0.001,0.434c0.157,0,0.295,0,0.437,0c0,0.295,0,0.58,0,0.883
		c-0.298,0-0.589,0-0.886,0c0,0.067,0,0.116,0,0.165c0,2.136,0,4.272,0,6.408c0,0.045,0.001,0.091-0.001,0.136
		c-0.027,0.505-0.251,0.895-0.7,1.133C8.024,11.486,7.838,11.517,7.664,11.573z M8.005,3.566c-2.089,0-4.161,0-6.241,0
		c0,0.044,0,0.077,0,0.111c0,2.158,0,4.316,0,6.475c0,0.363,0.176,0.537,0.545,0.537c1.718,0.001,3.435,0,5.153,0
		c0.056,0,0.113-0.005,0.168-0.014c0.171-0.029,0.289-0.129,0.343-0.29c0.025-0.073,0.031-0.155,0.031-0.233
		c0.002-2.154,0.001-4.309,0.001-6.463C8.005,3.65,8.005,3.612,8.005,3.566z M3.581,1.779c0.869,0,1.739,0,2.608,0
		C6.28,1.282,5.968,0.904,5.475,0.903c-0.402,0-0.805-0.001-1.207,0C3.797,0.905,3.48,1.305,3.581,1.779z" fill="#a1bdc4"/>
	<path d="M4.451,4.458c0.293,0,0.575,0,0.867,0c0,1.774,0,3.544,0,5.322c-0.288,0-0.572,0-0.867,0
		C4.451,8.009,4.451,6.238,4.451,4.458z" fill="#a1bdc4"/>
	<path d="M3.542,4.462c0,1.775,0,3.543,0,5.317c-0.289,0-0.573,0-0.867,0c0-1.77,0-3.54,0-5.317C2.96,4.462,3.245,4.462,3.542,4.462
		z" fill="#a1bdc4"/>
	<path d="M6.23,4.458c0.29,0,0.571,0,0.863,0c0,1.773,0,3.543,0,5.321c-0.285,0-0.57,0-0.863,0C6.23,8.01,6.23,6.24,6.23,4.458z" fill="#a1bdc4"/>
</g>
</svg>
