<?xml version="1.0" encoding="utf-8"?>
<!-- Generator: Adobe Illustrator 18.1.1, SVG Export Plug-In . SVG Version: 6.00 Build 0)  -->
<!DOCTYPE svg PUBLIC "-//W3C//DTD SVG 1.1//EN" "http://www.w3.org/Graphics/SVG/1.1/DTD/svg11.dtd">
<svg version="1.1" id="Capa_1" xmlns="http://www.w3.org/2000/svg" xmlns:xlink="http://www.w3.org/1999/xlink" x="0px" y="0px"
	 viewBox="0 0 12.509 9.914" enable-background="new 0 0 12.509 9.914" xml:space="preserve">
<g>
	<path d="M6.257,0c0,0.894,0,1.745,0,2.604c0.346,0.037,0.685,0.061,1.021,0.11c1.927,0.277,3.485,1.144,4.492,2.862
		c0.476,0.811,0.689,1.704,0.728,2.636c0.023,0.557,0.004,1.115,0.004,1.672c-0.312,0.059-0.312,0.058-0.471-0.2
		c-0.417-0.679-0.833-1.357-1.334-1.981C9.858,6.658,8.744,6.114,7.461,5.869C7.074,5.795,6.678,5.772,6.263,5.723
		c0,0.88,0,1.733,0,2.626C4.164,6.95,2.096,5.572,0,4.174C2.087,2.782,4.156,1.402,6.257,0z" fill="#a1bdc4"/>
</g>

</svg>
