<?xml version="1.0" encoding="utf-8"?>
<!-- Generator: Adobe Illustrator 18.1.1, SVG Export Plug-In . SVG Version: 6.00 Build 0)  -->
<!DOCTYPE svg PUBLIC "-//W3C//DTD SVG 1.1//EN" "http://www.w3.org/Graphics/SVG/1.1/DTD/svg11.dtd">
<svg version="1.1" id="Capa_1" xmlns="http://www.w3.org/2000/svg" xmlns:xlink="http://www.w3.org/1999/xlink" x="0px" y="0px"
	 viewBox="0 0 15.9 13" enable-background="new 0 0 15.9 13" xml:space="preserve">
<g>
	<g>
		<path d="M11.1,5.6C11.1,5.6,11.2,5.6,11.1,5.6c0.9,0,1.6,0.7,1.6,1.6c0,1.3,0,2.7,0,4c0,0.5-0.2,1-0.7,1.3
			c-0.2,0.2-0.4,0.2-0.7,0.3c-2.3,0-4.6,0-6.8,0c0,0,0,0-0.1,0c-0.8-0.1-1.3-0.9-1.3-1.6c0-1.3,0-2.7,0-4c0-0.7,0.5-1.3,1.2-1.5
			c0.1,0,0.3,0,0.4-0.1 M6.4,5.6c1.1,0,2.1,0,3.2,0 M8.3,10.1C8.3,10.1,8.3,10.1,8.3,10.1c0-0.2,0-0.4,0-0.6c0-0.1,0-0.1,0.1-0.2
			c0.4-0.3,0.4-0.8,0.1-1.1c-0.3-0.3-0.8-0.3-1.2,0C7,8.6,7.1,9.1,7.5,9.4c0.1,0.1,0.1,0.1,0.1,0.2c0,0.4,0,0.8,0,1.1
			c0,0.1,0,0.3,0.1,0.4c0.1,0.1,0.3,0.1,0.4,0.1c0.2-0.1,0.2-0.2,0.2-0.4C8.3,10.6,8.3,10.3,8.3,10.1z" fill="#fff"/>
	</g>
	<path display="none" d="M9.5,5.7c0-0.7,0-1.4,0-2.2c0-0.1,0-0.2,0-0.4C9.3,2.4,8.6,1.8,7.8,1.9C7,2,6.4,2.6,6.4,3.4
		c0,0.8,0,1.5,0,2.3l-1.6,0c0-0.8,0-1.4,0-2.2c0-0.1,0-0.3,0-0.4c0.2-1.2,1.1-2.3,2.3-2.6c0.2-0.1,0.4-0.1,0.5-0.1
		c0.2,0,0.5,0,0.7,0c0.1,0,0.2,0,0.3,0.1c1.4,0.3,2.6,1.6,2.6,3.1c0,0.8,0,1.5,0,2.3" fill="#fff"/>
	<path d="M14.3,5.7c0-0.7,0-1.4,0-2.2c0-0.1,0-0.2,0-0.4c-0.2-0.8-0.9-1.3-1.7-1.3c-0.8,0.1-1.5,0.7-1.5,1.5c0,0.8,0,1.5,0,2.3
		l-1.6,0c0-0.8,0-1.4,0-2.2c0-0.1,0-0.3,0-0.4c0.2-1.2,1.1-2.3,2.3-2.6c0.2-0.1,0.4-0.1,0.5-0.1c0.2,0,0.5,0,0.7,0
		c0.1,0,0.2,0,0.3,0.1c1.4,0.3,2.6,1.6,2.6,3.1c0,0.8,0,1.5,0,2.3" fill="#fff"/>
</g>
</svg>
